<?xml version="1.0" encoding="utf-8"?>
<!-- Generator: Adobe Illustrator 17.1.0, SVG Export Plug-In . SVG Version: 6.00 Build 0)  -->
<!DOCTYPE svg PUBLIC "-//W3C//DTD SVG 1.1//EN" "http://www.w3.org/Graphics/SVG/1.1/DTD/svg11.dtd">
<svg version="1.1" id="Layer_1" xmlns="http://www.w3.org/2000/svg" xmlns:xlink="http://www.w3.org/1999/xlink" x="0px" y="0px"
	 viewBox="0 0 213.1 7.9" enable-background="new 0 0 213.1 7.9" xml:space="preserve">
<g>
	<g>
		<path fill="#FFFFFF" d="M94.2,6.4c-0.7,0-1.5-0.3-2-0.8l0.6-0.8c0.4,0.4,0.9,0.6,1.4,0.6c0.4,0,0.7-0.2,0.7-0.5v0
			c0-0.3-0.2-0.4-1-0.6c-1-0.2-1.6-0.5-1.6-1.5v0c0-0.9,0.7-1.5,1.7-1.5c0.7,0,1.3,0.2,1.8,0.6l-0.6,0.8c-0.4-0.3-0.8-0.5-1.3-0.5
			c-0.4,0-0.6,0.2-0.6,0.4v0c0,0.3,0.2,0.4,1,0.6c1,0.3,1.5,0.6,1.5,1.4v0C96,5.9,95.3,6.4,94.2,6.4z"/>
		<path fill="#FFFFFF" d="M100,2.5v3.8h-1.1V2.5h-1.5v-1h4v1H100z"/>
		<path fill="#FFFFFF" d="M106.2,6.4l-0.4-1.1h-2l-0.4,1.1h-1.1l2.1-4.9h1l2.1,4.9H106.2z M104.8,2.8l-0.6,1.6h1.3L104.8,2.8z"/>
		<path fill="#FFFFFF" d="M110.7,2.5v3.8h-1.1V2.5h-1.5v-1h4v1H110.7z"/>
		<path fill="#FFFFFF" d="M114,6.4V1.5h3.6v0.9H115v1h2.3v0.9H115v1h2.6v0.9H114z"/>
		<path fill="#FFFFFF" d="M124.7,6.4c-1.3,0-2.1-0.7-2.1-2.1V1.5h1.1v2.7c0,0.8,0.4,1.2,1,1.2c0.6,0,1-0.4,1-1.2V1.5h1.1v2.7
			C126.8,5.7,126,6.4,124.7,6.4z"/>
		<path fill="#FFFFFF" d="M132.2,6.4l-2.3-3.1v3.1h-1V1.5h1l2.3,3v-3h1v4.8H132.2z"/>
		<path fill="#FFFFFF" d="M135.4,6.4V1.5h1.1v4.8H135.4z"/>
		<path fill="#FFFFFF" d="M141.1,6.4h-0.9l-2-4.9h1.2l1.3,3.4l1.3-3.4h1.1L141.1,6.4z"/>
		<path fill="#FFFFFF" d="M144.8,6.4V1.5h3.6v0.9h-2.6v1h2.3v0.9h-2.3v1h2.6v0.9H144.8z"/>
		<path fill="#FFFFFF" d="M153.3,6.4l-1-1.5h-0.8v1.5h-1.1V1.5h2.2c1.1,0,1.8,0.6,1.8,1.6v0c0,0.8-0.4,1.3-1,1.5l1.2,1.7H153.3z
			 M153.4,3.2c0-0.5-0.3-0.7-0.8-0.7h-1.1v1.4h1.1C153.1,3.9,153.4,3.6,153.4,3.2L153.4,3.2z"/>
		<path fill="#FFFFFF" d="M158.1,6.4c-0.7,0-1.5-0.3-2-0.8l0.6-0.8c0.4,0.4,0.9,0.6,1.4,0.6c0.4,0,0.7-0.2,0.7-0.5v0
			c0-0.3-0.2-0.4-1-0.6c-1-0.2-1.6-0.5-1.6-1.5v0c0-0.9,0.7-1.5,1.7-1.5c0.7,0,1.3,0.2,1.8,0.6l-0.6,0.8c-0.4-0.3-0.8-0.5-1.3-0.5
			c-0.4,0-0.6,0.2-0.6,0.4v0c0,0.3,0.2,0.4,1,0.6c1,0.3,1.5,0.6,1.5,1.4v0C159.9,5.9,159.2,6.4,158.1,6.4z"/>
		<path fill="#FFFFFF" d="M161.9,6.4V1.5h1.1v4.8H161.9z"/>
		<path fill="#FFFFFF" d="M167.3,2.5v3.8h-1.1V2.5h-1.5v-1h4v1H167.3z"/>
		<path fill="#FFFFFF" d="M173,4.4v1.9H172V4.5l-1.9-2.9h1.2l1.2,1.9l1.2-1.9h1.2L173,4.4z"/>
		<path fill="#FFFFFF" d="M181.3,6.4c-0.7,0-1.5-0.3-2-0.8l0.6-0.8c0.4,0.4,0.9,0.6,1.4,0.6c0.4,0,0.7-0.2,0.7-0.5v0
			c0-0.3-0.2-0.4-1-0.6c-1-0.2-1.6-0.5-1.6-1.5v0c0-0.9,0.7-1.5,1.7-1.5c0.7,0,1.3,0.2,1.8,0.6l-0.6,0.8c-0.4-0.3-0.8-0.5-1.3-0.5
			c-0.4,0-0.6,0.2-0.6,0.4v0c0,0.3,0.2,0.4,1,0.6c1,0.3,1.5,0.6,1.5,1.4v0C183.1,5.9,182.4,6.4,181.3,6.4z"/>
		<path fill="#FFFFFF" d="M187.2,4.4v1.9h-1.1V4.5l-1.9-2.9h1.2l1.2,1.9l1.2-1.9h1.2L187.2,4.4z"/>
		<path fill="#FFFFFF" d="M192.2,6.4c-0.7,0-1.5-0.3-2-0.8l0.6-0.8c0.4,0.4,0.9,0.6,1.4,0.6c0.4,0,0.7-0.2,0.7-0.5v0
			c0-0.3-0.2-0.4-1-0.6c-1-0.2-1.6-0.5-1.6-1.5v0c0-0.9,0.7-1.5,1.7-1.5c0.7,0,1.3,0.2,1.8,0.6l-0.6,0.8c-0.4-0.3-0.8-0.5-1.3-0.5
			c-0.4,0-0.6,0.2-0.6,0.4v0c0,0.3,0.2,0.4,1,0.6c1,0.3,1.5,0.6,1.5,1.4v0C194,5.9,193.3,6.4,192.2,6.4z"/>
		<path fill="#FFFFFF" d="M198,2.5v3.8h-1.1V2.5h-1.5v-1h4v1H198z"/>
		<path fill="#FFFFFF" d="M201.3,6.4V1.5h3.6v0.9h-2.6v1h2.3v0.9h-2.3v1h2.6v0.9H201.3z"/>
		<path fill="#FFFFFF" d="M210.7,6.4V3.2l-1.4,2.1h0l-1.3-2v3.1h-1V1.5h1.1l1.3,2l1.3-2h1.1v4.8H210.7z"/>
	</g>
	<g>
		<path fill="#FFFFFF" d="M4.1,5.1L4.1,5.1L2.3,2.5v3.9H1.8V1.6h0.5l1.7,2.6l1.7-2.6h0.5v4.8H5.8V2.5L4.1,5.1z"/>
		<path fill="#FFFFFF" d="M11.8,2.1H8.9v1.6h2.6v0.5H8.9v1.7h2.9v0.5H8.4V1.6h3.4V2.1z"/>
		<path fill="#FFFFFF" d="M15.9,5.1L15.9,5.1l-1.8-2.5v3.9h-0.5V1.6h0.5l1.7,2.6l1.7-2.6h0.5v4.8h-0.5V2.5L15.9,5.1z"/>
		<path fill="#FFFFFF" d="M23.8,2.8c0,0.6-0.4,0.9-0.8,1.1c0.6,0.2,1,0.5,1,1.2c0,0.8-0.7,1.3-1.7,1.3h-2.1V1.6h2
			C23.2,1.6,23.8,2.1,23.8,2.8z M23.2,2.9c0-0.5-0.4-0.8-1.1-0.8h-1.4v1.6h1.4C22.8,3.7,23.2,3.4,23.2,2.9z M23.5,5
			c0-0.5-0.4-0.8-1.3-0.8h-1.5v1.7h1.6C23,5.9,23.5,5.6,23.5,5z"/>
		<path fill="#FFFFFF" d="M29.2,2.1h-2.9v1.6h2.6v0.5h-2.6v1.7h2.9v0.5h-3.5V1.6h3.4V2.1z"/>
		<path fill="#FFFFFF" d="M34.3,6.4l-1.4-1.9h-1.4v1.9H31V1.6h2c1,0,1.7,0.6,1.7,1.4c0,0.8-0.5,1.3-1.3,1.4L35,6.4H34.3z M33,2.1
			h-1.5V4H33c0.7,0,1.2-0.4,1.2-1C34.3,2.4,33.8,2.1,33,2.1z"/>
		<path fill="#FFFFFF" d="M41.4,2.5v3.8h-1.1V2.5h-1.5v-1h4v1H41.4z"/>
		<path fill="#FFFFFF" d="M47.7,6.4V4.4h-2v1.9h-1.1V1.5h1.1v1.9h2V1.5h1.1v4.8H47.7z"/>
		<path fill="#FFFFFF" d="M51,6.4V1.5h3.6v0.9H52v1h2.3v0.9H52v1h2.6v0.9H51z"/>
		<path fill="#FFFFFF" d="M61.8,2.5v3.8h-1.1V2.5h-1.5v-1h4v1H61.8z"/>
		<path fill="#FFFFFF" d="M65.1,6.4V1.5h3.6v0.9h-2.6v1h2.3v0.9h-2.3v1h2.6v0.9H65.1z"/>
		<path fill="#FFFFFF" d="M73.8,6.4l-1.1-1.7l-1.1,1.7h-1.2l1.7-2.5l-1.6-2.4h1.2l1,1.6l1-1.6h1.2l-1.6,2.4L75,6.4H73.8z"/>
		<path fill="#FFFFFF" d="M80.2,6.4l-0.4-1.1h-2l-0.4,1.1h-1.1l2.1-4.9h1l2.1,4.9H80.2z M78.8,2.8l-0.6,1.6h1.3L78.8,2.8z"/>
		<path fill="#FFFFFF" d="M84.7,6.4c-0.7,0-1.5-0.3-2-0.8l0.6-0.8c0.4,0.4,0.9,0.6,1.4,0.6c0.4,0,0.7-0.2,0.7-0.5v0
			c0-0.3-0.2-0.4-1-0.6c-1-0.2-1.6-0.5-1.6-1.5v0c0-0.9,0.7-1.5,1.7-1.5c0.7,0,1.3,0.2,1.8,0.6l-0.6,0.8c-0.4-0.3-0.8-0.5-1.3-0.5
			c-0.4,0-0.6,0.2-0.6,0.4v0c0,0.3,0.2,0.4,1,0.6c1,0.3,1.5,0.6,1.5,1.4v0C86.5,5.9,85.8,6.4,84.7,6.4z"/>
	</g>
</g>
</svg>
